<?xml version="1.0" encoding="UTF-8" standalone="no"?>
<!-- Created with Inkscape (http://www.inkscape.org/) -->

<svg
   xmlns:dc="http://purl.org/dc/elements/1.1/"
   xmlns:cc="http://creativecommons.org/ns#"
   xmlns:rdf="http://www.w3.org/1999/02/22-rdf-syntax-ns#"
   xmlns:svg="http://www.w3.org/2000/svg"
   xmlns="http://www.w3.org/2000/svg"
   xmlns:sodipodi="http://sodipodi.sourceforge.net/DTD/sodipodi-0.dtd"
   xmlns:inkscape="http://www.inkscape.org/namespaces/inkscape"
   width="120mm"
   height="100mm"
   viewBox="0 0 425.19685 354.33071"
   id="svg2"
   version="1.1"
   inkscape:version="0.91 r13725"
   sodipodi:docname="magnet holder stand 003.svg">
  <defs
     id="defs4" />
  <sodipodi:namedview
     id="base"
     pagecolor="#ffffff"
     bordercolor="#666666"
     borderopacity="1.0"
     inkscape:pageopacity="0.0"
     inkscape:pageshadow="2"
     inkscape:zoom="1.979899"
     inkscape:cx="111.9321"
     inkscape:cy="275.18047"
     inkscape:document-units="mm"
     inkscape:current-layer="layer1"
     showgrid="false"
     showguides="true"
     inkscape:guide-bbox="true"
     inkscape:window-width="1600"
     inkscape:window-height="837"
     inkscape:window-x="-4"
     inkscape:window-y="-4"
     inkscape:window-maximized="1" />
  <metadata
     id="metadata7">
    <rdf:RDF>
      <cc:Work
         rdf:about="">
        <dc:format>image/svg+xml</dc:format>
        <dc:type
           rdf:resource="http://purl.org/dc/dcmitype/StillImage" />
        <dc:title></dc:title>
      </cc:Work>
    </rdf:RDF>
  </metadata>
  <g
     inkscape:label="Layer 1"
     inkscape:groupmode="layer"
     id="layer1"
     transform="translate(0,-698.0315)">
    <rect
       style="fill:none;fill-opacity:1;stroke:#000000;stroke-width:0.7439999;stroke-miterlimit:4;stroke-dasharray:none;stroke-dashoffset:0;stroke-opacity:1"
       id="rect4136"
       width="140.98828"
       height="70.122139"
       x="708.62183"
       y="-153.33388"
       transform="matrix(0,1,-1,0,0,0)" />
    <g
       id="g4921"
       transform="translate(-0.70866013,0.70864868)">
      <circle
         r="19.824852"
         transform="matrix(0,1,-1,0,0,0)"
         cy="-118.98147"
         cx="824.13281"
         id="path4138"
         style="fill:none;fill-opacity:1;stroke:#000000;stroke-width:0.7439999;stroke-miterlimit:4;stroke-dasharray:none;stroke-dashoffset:0;stroke-opacity:1" />
      <circle
         r="19.824852"
         transform="matrix(0,1,-1,0,0,0)"
         cy="-118.98147"
         cx="732.68182"
         id="path4138-5"
         style="fill:none;fill-opacity:1;stroke:#000000;stroke-width:0.7439999;stroke-miterlimit:4;stroke-dasharray:none;stroke-dashoffset:0;stroke-opacity:1" />
    </g>
    <rect
       style="fill:none;fill-opacity:1;stroke:#000000;stroke-width:0.74400002;stroke-miterlimit:4;stroke-dasharray:none;stroke-dashoffset:0;stroke-opacity:1"
       id="rect4155"
       width="10.240252"
       height="10.240252"
       x="762.53381"
       y="-123.57009"
       transform="matrix(0,1,-1,0,0,0)" />
    <rect
       style="fill:none;fill-opacity:1;stroke:#000000;stroke-width:0.74400002;stroke-miterlimit:4;stroke-dasharray:none;stroke-dashoffset:0;stroke-opacity:1"
       id="rect4155-8"
       width="10.240252"
       height="10.240252"
       x="762.53381"
       y="-98.212921"
       transform="matrix(0,1,-1,0,0,0)" />
    <rect
       style="fill:none;fill-opacity:1;stroke:#000000;stroke-width:0.74400002;stroke-miterlimit:4;stroke-dasharray:none;stroke-dashoffset:0;stroke-opacity:1"
       id="rect4155-8-5"
       width="10.240252"
       height="10.240252"
       x="762.53381"
       y="-148.92728"
       transform="matrix(0,1,-1,0,0,0)" />
    <rect
       style="fill:none;fill-opacity:1;stroke:#000000;stroke-width:0.74400002;stroke-miterlimit:4;stroke-dasharray:none;stroke-dashoffset:0;stroke-opacity:1"
       id="rect4155-8-0"
       width="9.8859215"
       height="9.8859215"
       x="774.01514"
       y="-110.8835"
       transform="matrix(0,1,-1,0,0,0)" />
    <rect
       style="fill:none;fill-opacity:1;stroke:#000000;stroke-width:0.74400002;stroke-miterlimit:4;stroke-dasharray:none;stroke-dashoffset:0;stroke-opacity:1"
       id="rect4155-8-0-5"
       width="10.240252"
       height="10.240252"
       x="773.66077"
       y="-136.23788"
       transform="matrix(0,1,-1,0,0,0)" />
    <rect
       style="fill:none;fill-opacity:1;stroke:#000000;stroke-width:0.74400002;stroke-miterlimit:4;stroke-dasharray:none;stroke-dashoffset:0;stroke-opacity:1"
       id="rect4155-5"
       width="10.240252"
       height="10.240252"
       x="785.10468"
       y="-123.57009"
       transform="matrix(0,1,-1,0,0,0)" />
    <rect
       style="fill:none;fill-opacity:1;stroke:#000000;stroke-width:0.74400002;stroke-miterlimit:4;stroke-dasharray:none;stroke-dashoffset:0;stroke-opacity:1"
       id="rect4155-8-50"
       width="10.240252"
       height="10.240252"
       x="785.10468"
       y="-98.212921"
       transform="matrix(0,1,-1,0,0,0)" />
    <rect
       style="fill:none;fill-opacity:1;stroke:#000000;stroke-width:0.74400002;stroke-miterlimit:4;stroke-dasharray:none;stroke-dashoffset:0;stroke-opacity:1"
       id="rect4155-8-5-4"
       width="10.240252"
       height="10.240252"
       x="785.10468"
       y="-148.92728"
       transform="matrix(0,1,-1,0,0,0)" />
    <path
       style="fill:none;fill-opacity:1;stroke:#000000;stroke-width:0.74400002;stroke-miterlimit:4;stroke-dasharray:none;stroke-dashoffset:0;stroke-opacity:1"
       d="m 305.02621,708.62278 -4.75977,0 0,-8.63086 -9.88672,0 0,8.63086 -15.4707,0 0,-8.63086 -9.88672,0 0,8.63086 -15.4707,0 0,-8.63086 -9.88672,0 0,8.63086 -4.75977,0 0,140.98828 4.75977,0 0,8.6289 9.88672,0 0,-8.6289 15.4707,0 0,8.6289 9.88672,0 0,-8.6289 15.4707,0 0,8.6289 9.88672,0 0,-8.6289 4.75977,0 0,-140.98828 z"
       id="rect4155-1"
       inkscape:connector-curvature="0" />
    <path
       style="fill:none;fill-opacity:1;stroke:#000000;stroke-width:0.74400002;stroke-miterlimit:4;stroke-dasharray:none;stroke-dashoffset:0;stroke-opacity:1"
       d="m 379.98677,709.50861 -17.61718,0 0,-8.63086 -9.88672,0 0,8.63086 -15.11328,0 0,-8.63086 -9.88672,0 0,8.63086 -17.61719,0 0,140.98828 17.61719,0 0,8.6289 9.88672,0 0,-8.6289 15.11328,0 0,8.6289 9.88672,0 0,-8.6289 17.61718,0 0,-140.98828 z"
       id="rect4155-8-0-59"
       inkscape:connector-curvature="0" />
    <circle
       style="fill:none;fill-opacity:1;stroke:#000000;stroke-width:0.74399996;stroke-miterlimit:4;stroke-dasharray:none;stroke-dashoffset:0;stroke-opacity:1"
       id="path4138-5-5"
       cx="822.16455"
       cy="-344.92621"
       transform="matrix(0,1,-1,0,0,0)"
       r="21.77367" />
    <path
       inkscape:connector-curvature="0"
       style="fill:none;fill-opacity:1;stroke:#000000;stroke-width:0.74400002;stroke-miterlimit:4;stroke-dasharray:none;stroke-dashoffset:0;stroke-opacity:1"
       d="m 229.17977,708.62278 -4.75977,0 0,-8.63086 -9.88672,0 0,8.63086 -15.4707,0 0,-8.63086 -9.88672,0 0,8.63086 -15.4707,0 0,-8.63086 -9.88672,0 0,8.63086 -4.75976,0 0,140.98829 4.75976,0 0,8.6289 9.88672,0 0,-8.6289 15.4707,0 0,8.6289 9.88672,0 0,-8.6289 15.4707,0 0,8.6289 9.88672,0 0,-8.6289 4.75977,0 0,-140.98829 z"
       id="rect4155-1-1" />
    <rect
       style="fill:none;fill-opacity:1;stroke:#000000;stroke-width:0.7439999;stroke-miterlimit:4;stroke-dasharray:none;stroke-dashoffset:0;stroke-opacity:1"
       id="rect4136-3"
       width="140.98828"
       height="70.122139"
       x="708.62183"
       y="-77.487473"
       transform="matrix(0,1,-1,0,0,0)" />
    <rect
       style="fill:none;fill-opacity:1;stroke:#000000;stroke-width:0.74400002;stroke-miterlimit:4;stroke-dasharray:none;stroke-dashoffset:0;stroke-opacity:1"
       id="rect4155-81"
       width="10.240252"
       height="10.240252"
       x="762.53381"
       y="-47.723694"
       transform="matrix(0,1,-1,0,0,0)" />
    <rect
       style="fill:none;fill-opacity:1;stroke:#000000;stroke-width:0.74400002;stroke-miterlimit:4;stroke-dasharray:none;stroke-dashoffset:0;stroke-opacity:1"
       id="rect4155-8-51"
       width="10.240252"
       height="10.240252"
       x="762.53381"
       y="-22.366518"
       transform="matrix(0,1,-1,0,0,0)" />
    <rect
       style="fill:none;fill-opacity:1;stroke:#000000;stroke-width:0.74400002;stroke-miterlimit:4;stroke-dasharray:none;stroke-dashoffset:0;stroke-opacity:1"
       id="rect4155-8-5-1"
       width="10.240252"
       height="10.240252"
       x="762.53381"
       y="-73.080872"
       transform="matrix(0,1,-1,0,0,0)" />
    <rect
       style="fill:none;fill-opacity:1;stroke:#000000;stroke-width:0.74400002;stroke-miterlimit:4;stroke-dasharray:none;stroke-dashoffset:0;stroke-opacity:1"
       id="rect4155-8-0-9"
       width="10.240252"
       height="10.240252"
       x="773.66077"
       y="-35.391415"
       transform="matrix(0,1,-1,0,0,0)" />
    <rect
       style="fill:none;fill-opacity:1;stroke:#000000;stroke-width:0.74400002;stroke-miterlimit:4;stroke-dasharray:none;stroke-dashoffset:0;stroke-opacity:1"
       id="rect4155-8-0-5-9"
       width="10.240252"
       height="10.240252"
       x="773.66077"
       y="-60.391476"
       transform="matrix(0,1,-1,0,0,0)" />
    <rect
       style="fill:none;fill-opacity:1;stroke:#000000;stroke-width:0.74400002;stroke-miterlimit:4;stroke-dasharray:none;stroke-dashoffset:0;stroke-opacity:1"
       id="rect4155-5-2"
       width="10.240252"
       height="10.240252"
       x="785.10468"
       y="-47.723694"
       transform="matrix(0,1,-1,0,0,0)" />
    <rect
       style="fill:none;fill-opacity:1;stroke:#000000;stroke-width:0.74400002;stroke-miterlimit:4;stroke-dasharray:none;stroke-dashoffset:0;stroke-opacity:1"
       id="rect4155-8-50-6"
       width="10.240252"
       height="10.240252"
       x="785.10468"
       y="-22.366518"
       transform="matrix(0,1,-1,0,0,0)" />
    <rect
       style="fill:none;fill-opacity:1;stroke:#000000;stroke-width:0.74400002;stroke-miterlimit:4;stroke-dasharray:none;stroke-dashoffset:0;stroke-opacity:1"
       id="rect4155-8-5-4-1"
       width="10.240252"
       height="10.240252"
       x="785.10468"
       y="-73.080872"
       transform="matrix(0,1,-1,0,0,0)" />
  </g>
</svg>
